<svg width="20" height="21" viewBox="0 0 20 21" fill="none" xmlns="http://www.w3.org/2000/svg">
<path d="M19.6 10.6927C19.6 9.98358 19.5364 9.30176 19.4182 8.64722H10V12.5199H15.3818C15.1455 13.7654 14.4364 14.8199 13.3728 15.529V18.0472H16.6182C18.5091 16.3018 19.6 13.7381 19.6 10.6927Z" fill="#4285F4"/>
<path d="M10 20.4654C12.7 20.4654 14.9636 19.5745 16.6182 18.0472L13.3727 15.5291C12.4818 16.1291 11.3455 16.4927 10 16.4927C7.40002 16.4927 5.19093 14.7381 4.40002 12.3745H1.07275V14.9563C2.71821 18.22 6.09093 20.4654 10 20.4654Z" fill="#34A853"/>
<path d="M4.40003 12.3652C4.20003 11.7652 4.08184 11.1289 4.08184 10.4652C4.08184 9.80158 4.20003 9.16522 4.40003 8.56522V5.9834H1.07276C0.390939 7.32885 3.05176e-05 8.84703 3.05176e-05 10.4652C3.05176e-05 12.0834 0.390939 13.6016 1.07276 14.947L3.66366 12.9289L4.40003 12.3652Z" fill="#FBBC05"/>
<path d="M10 4.44715C11.4727 4.44715 12.7818 4.95624 13.8273 5.93806L16.6909 3.07442C14.9546 1.45624 12.7 0.465332 10 0.465332C6.09093 0.465332 2.71821 2.71079 1.07275 5.98351L4.40002 8.56533C5.19093 6.20169 7.40002 4.44715 10 4.44715Z" fill="#EA4335"/>
</svg>
