<svg width="50" height="44" viewBox="0 0 50 44" fill="none" xmlns="http://www.w3.org/2000/svg">
<path d="M22.7682 15.3493L25.8076 10.0849L41.1674 36.6889H10.4478L13.4157 31.5483C10.9525 31.8842 8.36527 31.4492 6.03647 30.1407L2.25593 36.6889C0.435514 39.8419 2.71105 43.7832 6.35189 43.7832H45.2634C48.9042 43.7832 51.1797 39.8419 49.3593 36.6888L29.9036 2.99052C28.0831 -0.162536 23.5321 -0.162529 21.7117 2.99053L17.8596 9.66244C20.1572 11.025 21.8276 13.0481 22.7682 15.3493Z" fill="#1C2835"/>
<path fill-rule="evenodd" clip-rule="evenodd" d="M22.0658 25.7431C25.3309 20.0877 23.3933 12.8563 17.7379 9.59121C12.0826 6.32611 4.85119 8.26377 1.58609 13.9191C-1.67901 19.5744 0.258642 26.8058 5.91396 30.0709C5.95472 30.0945 5.99556 30.1177 6.03647 30.1407L17.8596 9.66245C20.1572 11.025 21.8275 13.0481 22.7682 15.3493L13.4157 31.5483C16.9147 31.071 20.1635 29.038 22.0658 25.7431Z" fill="#90EBFF"/>
</svg>
