<svg width="76" height="72" viewBox="0 0 76 72" fill="none" xmlns="http://www.w3.org/2000/svg">
<path d="M68.3379 19.9109C63.4945 14.7345 56.635 12.1069 47.9411 12.1069H43.7939C44.5946 15.1073 44.9736 18.2045 44.92 21.3094C44.92 21.6545 44.92 21.9875 44.92 22.3205H47.9472C53.7835 22.3205 58.0093 23.8159 60.879 26.8793C63.7487 29.9428 65.2805 35.1434 65.2805 42.1542C65.2805 49.165 63.8032 54.184 60.8972 57.2535C57.9911 60.323 53.7956 61.7639 47.9472 61.7639H41.1785C35.3362 61.7639 31.0982 60.2867 28.2285 57.2535C25.3587 54.2203 23.9117 49.2801 23.8573 42.5296H19.365C17.4414 42.5401 15.5225 42.3371 13.6437 41.9241C13.6437 41.9968 13.6437 42.0694 13.6437 42.1421C13.6437 51.7865 16.0655 59.2332 20.812 64.2583C25.5585 69.2833 32.5027 71.9653 41.1845 71.9653H47.9532C56.6411 71.9653 63.4945 69.3741 68.3258 64.2583C73.1571 59.1424 75.5 51.7865 75.5 42.1421C75.5 32.4977 73.0784 24.9843 68.3379 19.9109Z" fill="#1C2835"/>
<path d="M44.9079 22.3204C44.7687 28.8227 43.2914 33.6237 40.4035 36.9657C37.2129 40.6587 32.4119 42.5235 26.1276 42.5235H23.8512C23.8512 42.4024 23.8512 42.2813 23.8512 42.1541C23.7773 38.8228 24.2288 35.5007 25.1892 32.3099C25.8011 30.2921 26.8467 28.4325 28.2526 26.8611C29.9967 25.0349 32.218 23.7345 34.6641 23.1075C36.7887 22.5435 38.9805 22.2726 41.1785 22.3022L44.9079 22.3204Z" fill="#90EBFF"/>
<path d="M43.7939 12.1069H41.1725C38.4804 12.0916 35.7953 12.3821 33.1687 12.9726C28.4321 13.9731 24.1119 16.3909 20.7817 19.9047C17.9241 22.9621 15.9383 26.8974 14.782 31.65C13.9985 35.024 13.6145 38.4785 13.6377 41.9422C10.2869 41.2919 7.24283 39.5581 4.97407 37.008C1.94694 33.5147 0.5 28.4109 0.5 21.388C0.5 14.3651 1.97118 9.17658 4.99831 5.64695C8.1889 1.92964 13.0202 0.034668 19.359 0.034668H26.1034C32.4543 0.034668 37.2856 1.92965 40.452 5.67118C42.0096 7.55524 43.1488 9.74898 43.7939 12.1069Z" fill="#90EBFF"/>
</svg>
